HIERARCHY
ROOT Hips
{
	OFFSET	0.00	0.00	0.00
	CHANNELS 6 Xposition Yposition Zposition Zrotation Xrotation Yrotation
	JOINT LeftUpLeg
	{
		OFFSET	 0.126116	-0.014019	-0.065224
		CHANNELS 3 Zrotation Xrotation Yrotation
		JOINT LeftLeg
		{
			OFFSET	 0.000000	 0.000000	 0.569914
			CHANNELS 3 Zrotation Xrotation Yrotation
			JOINT LeftFoot
			{
				OFFSET	 0.000000	 0.000000	 0.544423
				CHANNELS 3 Zrotation Xrotation Yrotation
				JOINT LeftToeBase
				{
					OFFSET	 0.000000	 0.000000	 0.207117
					CHANNELS 3 Zrotation Xrotation Yrotation
					End Site
					{
						OFFSET	 0.000000	 0.000000	 0.207117
					}
				}
			}
		}
	}
	JOINT RightUpLeg
	{
		OFFSET	-0.124023	-0.008373	-0.065224
		CHANNELS 3 Zrotation Xrotation Yrotation
		JOINT RightLeg
		{
			OFFSET	 0.000000	 0.000000	 0.570047
			CHANNELS 3 Zrotation Xrotation Yrotation
			JOINT RightFoot
			{
				OFFSET	 0.000000	 0.000000	 0.544354
				CHANNELS 3 Zrotation Xrotation Yrotation
				JOINT RightToeBase
				{
					OFFSET	 0.000000	 0.000000	 0.207540
					CHANNELS 3 Zrotation Xrotation Yrotation
					End Site
					{
						OFFSET	 0.000000	 0.000000	 0.207540
					}
				}
			}
		}
	}
	JOINT Spine
	{
		OFFSET	 0.000184	-0.007763	 0.117403
		CHANNELS 3 Zrotation Xrotation Yrotation
		JOINT Spine1
		{
			OFFSET	 0.000000	 0.000000	 0.137269
			CHANNELS 3 Zrotation Xrotation Yrotation
			JOINT Spine2
			{
				OFFSET	 0.000000	 0.000000	 0.156879
				CHANNELS 3 Zrotation Xrotation Yrotation
				JOINT LeftShoulder
				{
					OFFSET	 0.080501	-0.002496	 0.160144
					CHANNELS 3 Zrotation Xrotation Yrotation
					JOINT LeftArm
					{
						OFFSET	 0.000000	 0.000000	 0.164363
						CHANNELS 3 Zrotation Xrotation Yrotation
						JOINT LeftForeArm
						{
							OFFSET	 0.000000	 0.000000	 0.364576
							CHANNELS 3 Zrotation Xrotation Yrotation
							JOINT LeftHand
							{
								OFFSET	 0.000000	 0.000000	 0.360812
								CHANNELS 3 Zrotation Xrotation Yrotation
								JOINT LeftHandIndex1
								{
									OFFSET	 0.000000	 0.000000	 0.086006
									CHANNELS 3 Zrotation Xrotation Yrotation
									JOINT LeftHandIndex2
									{
										OFFSET	 0.000000	 0.000000	 0.047236
										CHANNELS 3 Zrotation Xrotation Yrotation
										JOINT LeftHandIndex3
										{
											OFFSET	-0.004284	-0.000551	 0.038166
											CHANNELS 3 Zrotation Xrotation Yrotation
											End Site
											{
												OFFSET	-0.004284	-0.000551	 0.038166
											}
										}
									}
								}
							}
						}
					}
				}
				JOINT Neck
				{
					OFFSET	 0.000000	 0.000000	 0.176489
					CHANNELS 3 Zrotation Xrotation Yrotation
					JOINT Head
					{
						OFFSET	 0.000000	-0.001747	 0.077940
						CHANNELS 3 Zrotation Xrotation Yrotation
						End Site
						{
							OFFSET	 0.000000	-0.001747	 0.077940
						}
					}
				}
				JOINT RightShoulder
				{
					OFFSET	-0.080363	 0.000306	 0.159706
					CHANNELS 3 Zrotation Xrotation Yrotation
					JOINT RightArm
					{
						OFFSET	 0.000000	 0.000000	 0.164196
						CHANNELS 3 Zrotation Xrotation Yrotation
						JOINT RightForeArm
						{
							OFFSET	 0.000000	 0.000000	 0.365611
							CHANNELS 3 Zrotation Xrotation Yrotation
							JOINT RightHand
							{
								OFFSET	 0.000000	 0.000000	 0.360648
								CHANNELS 3 Zrotation Xrotation Yrotation
								JOINT RightHandIndex1
								{
									OFFSET	 0.000000	 0.000000	 0.069977
									CHANNELS 3 Zrotation Xrotation Yrotation
									JOINT RightHandIndex2
									{
										OFFSET	 0.000000	 0.000000	 0.052305
										CHANNELS 3 Zrotation Xrotation Yrotation
										JOINT RightHandIndex3
										{
											OFFSET	 0.009002	-0.000782	 0.042196
											CHANNELS 3 Zrotation Xrotation Yrotation
											End Site
											{
												OFFSET	 0.009002	-0.000782	 0.042196
											}
										}
									}
								}
							}
						}
					}
				}
			}
		}
	}
}
MOTION
Frames:    9
Frame Time: 0.03333334
 0.000302	 0.019585	 1.273295	-0.002990	 0.003670	 0.173858	 1.297091	-1.745988	 177.404800	 1.475746	-11.756020	-0.685974	-7.609103	 70.557190	 1.546929	-2.385833	 28.452760	 0.000004	-1.463672	-1.802635	-177.699900	-1.466651	-11.389490	 0.651797	 7.246603	 70.227850	-1.357500	 2.384658	 28.388730	 0.000004	-10.515070	 2.675060	 0.294875	-2.159406	 3.830520	-0.799160	 6.536867	-4.709618	 1.421007	-91.776190	 78.527420	 180.000000	 49.016570	 37.037890	-62.113640	-11.650440	 0.354403	-2.826614	-34.629440	-22.032590	-6.011789	-2.635965	 4.993658	 6.788941	-5.165319	 0.784187	 3.516649	-5.225038	 0.466231	 0.424329	-0.000002	-3.783157	-0.089647	 6.355219	 4.531725	-0.251730	 89.782160	 78.203890	 179.999900	-63.491760	 41.658950	 58.246480	 10.862240	 4.274732	 10.588690	 35.725130	-22.599230	 10.898290	 6.112037	 4.509576	-0.364401	 4.968462	 1.518543	-9.347576	 5.168945	 0.703820	 2.021906
 0.000308	 0.019532	 1.274208	-0.002874	 0.003893	 0.174224	 1.504257	-1.755650	 177.389800	 1.475793	-11.752340	-0.685754	-7.590780	 70.399910	 1.532601	-2.385833	 28.452760	 0.000004	-1.671059	-1.810365	-177.686400	-1.466712	-11.384300	 0.651491	 7.228012	 70.070450	-1.342381	 2.384658	 28.388730	 0.000004	-13.153370	 2.650029	 0.290894	-2.155806	 3.917224	-0.791446	 6.525475	-4.821918	 1.425969	-91.776200	 78.527430	 180.000000	 48.998150	 37.007210	-61.998860	-13.141820	 0.518054	-3.841036	-36.475290	-24.711210	-6.939456	-2.635965	 4.993658	 6.788941	-5.165319	 0.784187	 3.516649	-5.225038	 0.466231	 0.424329	-0.000002	-3.783157	-0.089647	 6.339592	 4.480789	-0.248284	 89.782100	 78.203870	 180.000000	-63.181250	 41.274810	 59.125850	 11.926360	 4.696059	 11.746150	 37.855770	-25.421250	 11.815400	 6.112037	 4.509576	-0.364401	 4.968462	 1.518543	-9.347576	 5.168945	 0.703820	 2.021906
 0.000319	 0.019405	 1.276565	-0.002544	 0.004478	 0.174527	 2.040443	-1.780139	 177.351700	 1.475931	-11.741240	-0.685088	-7.543188	 69.992390	 1.495653	-2.385833	 28.452760	 0.000004	-2.207626	-1.831055	-177.651200	-1.466856	-11.371800	 0.650757	 7.180418	 69.663930	-1.303909	 2.384658	 28.388730	 0.000004	-19.803710	 2.585569	 0.280174	-2.140001	 4.140437	-0.769125	 6.476189	-5.112480	 1.434191	-91.776230	 78.527470	-180.000000	 48.909360	 36.906750	-61.630600	-16.990840	 1.193096	-6.443950	-41.597700	-30.905780	-10.095750	-2.635965	 4.993658	 6.788941	-5.165319	 0.784187	 3.516649	-5.225038	 0.466231	 0.424329	-0.000002	-3.783157	-0.089647	 6.279871	 4.351881	-0.238858	 89.782150	 78.203920	 180.000000	-61.059160	 39.735800	 59.729230	 13.963740	 8.317661	 18.700430	 43.707520	-32.055270	 15.031720	 6.112037	 4.509576	-0.364401	 4.968462	 1.518543	-9.347576	 5.168945	 0.703820	 2.021906
 0.000327	 0.019287	 1.279115	-0.002169	 0.005118	 0.173802	 2.618917	-1.805265	 177.311900	 1.476114	-11.725810	-0.684162	-7.491315	 69.551420	 1.455734	-2.385833	 28.452760	 0.000004	-2.786193	-1.854436	-177.612700	-1.466998	-11.359680	 0.650045	 7.129794	 69.226550	-1.263423	 2.384658	 28.388730	 0.000004	-26.294560	 2.516749	 0.268085	-2.112430	 4.378671	-0.741567	 6.390979	-5.424800	 1.435331	-91.776130	 78.527490	 180.000000	 48.765460	 36.759580	-61.144800	-20.997380	 2.288550	-9.104714	-47.347240	-35.623440	-14.249170	-2.635965	 4.993658	 6.788941	-5.165319	 0.784187	 3.516649	-5.225038	 0.466231	 0.424329	-0.000002	-3.783157	-0.089647	 6.184566	 4.217911	-0.227980	 89.782160	 78.203850	 179.999900	-58.406280	 37.887650	 64.411930	 15.731400	 10.501110	 22.221100	 49.702090	-37.517110	 19.166140	 6.112037	 4.509576	-0.364401	 4.968462	 1.518543	-9.347576	 5.168945	 0.703820	 2.021906
 0.000332	 0.019175	 1.281335	-0.001797	 0.005718	 0.172128	 3.160964	-1.827829	 177.275600	 1.476324	-11.708740	-0.683137	-7.442487	 69.137300	 1.418506	-2.385833	 28.452760	 0.000004	-3.328045	-1.877639	-177.576000	-1.467107	-11.350180	 0.649487	 7.083147	 68.818120	-1.226546	 2.384658	 28.388730	 0.000004	-31.334700	 2.453220	 0.256405	-2.076717	 4.598603	-0.712677	 6.281084	-5.715183	 1.428756	-91.776210	 78.527450	-180.000000	 48.585710	 36.585850	-60.602280	-24.600080	 3.590393	-11.374860	-52.111450	-37.603890	-17.853070	-2.635965	 4.993658	 6.788941	-5.165319	 0.784187	 3.516649	-5.225038	 0.466231	 0.424329	-0.000002	-3.783157	-0.089647	 6.066486	 4.097523	-0.217231	 89.782130	 78.203870	 180.000000	-55.354660	 35.726130	 70.288310	 16.402950	 11.749350	 24.095380	 53.517170	-40.777390	 22.259850	 6.112037	 4.509576	-0.364401	 4.968462	 1.518543	-9.347576	 5.168945	 0.703820	 2.021906
 0.000336	 0.019056	 1.283367	-0.001400	 0.006319	 0.169378	 3.717045	-1.850110	 177.239600	 1.476564	-11.688860	-0.681944	-7.392202	 68.711690	 1.380555	-2.385833	 28.452760	 0.000004	-3.883579	-1.903139	-177.537800	-1.467190	-11.343100	 0.649070	 7.036215	 68.400880	-1.189898	 2.384658	 28.388730	 0.000004	-35.119370	 2.389307	 0.244257	-2.030165	 4.819905	-0.680308	 6.138326	-6.009438	 1.414052	-91.776200	 78.527470	-180.000000	 48.371020	 36.387730	-59.990060	-27.892250	 5.098825	-13.416120	-55.698550	-37.027950	-20.164280	-2.635965	 4.993658	 6.788941	-5.165319	 0.784187	 3.516649	-5.225038	 0.466231	 0.424329	-0.000002	-3.783157	-0.089647	 5.916837	 3.979513	-0.205757	 89.782140	 78.203890	 179.999900	-51.883940	 33.337510	 77.872850	 16.710940	 11.413900	 23.300820	 55.132310	-41.714720	 23.608670	 6.112037	 4.509576	-0.364401	 4.968462	 1.518543	-9.347576	 5.168945	 0.703820	 2.021906
 0.000335	 0.018924	 1.284985	-0.001058	 0.006812	 0.166087	 4.202487	-1.868588	 177.209200	 1.476803	-11.669190	-0.680765	-7.348072	 68.339280	 1.347512	-2.385833	 28.452760	 0.000004	-4.368278	-1.926538	-177.503900	-1.467240	-11.338550	 0.648804	 6.995757	 68.037830	-1.158671	 2.384658	 28.388730	 0.000004	-37.070090	 2.334750	 0.233666	-1.981355	 5.008872	-0.649972	 5.989034	-6.262268	 1.394400	-91.776210	 78.527430	-180.000000	 48.158130	 36.192120	-59.404920	-30.435350	 6.464064	-14.930860	-57.329150	-34.490840	-20.473580	-2.635965	 4.993658	 6.788941	-5.165319	 0.784187	 3.516649	-5.225038	 0.466231	 0.424329	-0.000002	-3.783157	-0.089647	 5.763048	 3.881309	-0.195451	 89.782070	 78.203890	-180.000000	-49.717610	 30.785420	 89.115920	 17.638300	 6.406522	 15.009860	 54.072990	-40.465190	 22.560340	 6.112037	 4.509576	-0.364401	 4.968462	 1.518543	-9.347576	 5.168945	 0.703820	 2.021906
 0.000329	 0.018705	 1.286843	-0.000643	 0.007394	 0.160888	 4.813993	-1.891099	 177.172100	 1.477134	-11.642420	-0.679159	-7.278280	 67.878790	 1.303666	-2.385833	 28.452760	 0.000004	-4.955712	-1.956622	-177.462100	-1.467270	-11.335600	 0.648631	 6.959890	 67.591190	-1.124010	 2.384658	 28.388730	 0.000004	-37.558520	 2.269292	 0.220740	-1.910653	 5.235733	-0.610209	 5.773357	-6.567780	 1.361160	-91.776160	 78.527430	 180.000000	 47.884880	 35.935940	-58.656690	-33.100480	 8.088442	-16.449390	-57.593830	-29.102230	-18.696030	-2.635965	 4.993658	 6.788941	-5.165319	 0.784187	 3.516649	-5.225038	 0.466231	 0.424329	-0.000002	-3.783157	-0.089647	 5.543906	 3.766471	-0.182442	 89.782140	 78.203890	 179.999900	-44.458810	 27.228280	 94.241300	 16.249210	 8.002522	 16.548120	 50.232300	-36.376050	 18.592740	 6.112037	 4.509576	-0.364401	 4.968462	 1.518543	-9.347576	 5.168945	 0.703820	 2.021906
 0.000317	 0.018538	 1.288266	-0.000285	 0.007840	 0.155407	 5.325236	-1.908799	 177.142400	 1.477432	-11.617510	-0.677664	-7.232422	 67.484600	 1.269521	-2.385833	 28.452760	 0.000004	-5.466994	-1.984479	-177.425200	-1.467275	-11.335630	 0.648633	 6.917598	 67.211590	-1.092709	 2.384658	 28.388730	 0.000004	-36.231040	 2.215349	 0.210004	-1.841244	 5.422847	-0.574355	 5.562098	-6.821499	 1.324684	-91.776100	 78.527470	 179.999900	 47.637480	 35.700960	-57.984680	-34.928380	 9.320791	-17.444720	-56.789700	-22.940730	-15.790900	-2.635965	 4.993658	 6.788941	-5.165319	 0.784187	 3.516649	-5.225038	 0.466231	 0.424329	-0.000002	-3.783157	-0.089647	 5.331774	 3.674214	-0.171150	 89.782100	 78.203900	 180.000000	-39.200430	 24.086430	 97.994000	 14.461180	 9.207652	 17.559050	 45.749860	-30.884330	 13.668450	 6.112037	 4.509576	-0.364401	 4.968462	 1.518543	-9.347576	 5.168945	 0.703820	 2.021906
